<svg width="23" height="28" viewBox="0 0 23 28" fill="none" xmlns="http://www.w3.org/2000/svg">
<path fill-rule="evenodd" clip-rule="evenodd" d="M0.630169 19.0147C0.354575 18.58 0.350411 18.0263 0.619436 17.5874L10.7487 1.06452C11.3121 0.145516 12.6725 0.225872 13.1238 1.2048L22.3774 21.278C22.7207 22.0228 22.3255 22.8991 21.5399 23.1348L7.14527 27.4532C6.56611 27.6269 5.94208 27.3941 5.61834 26.8834L0.630169 19.0147ZM11.9174 5.89569C12.015 5.40962 12.681 5.33953 12.8777 5.79462L19.2607 20.5645C19.3808 20.8426 19.2313 21.1633 18.941 21.2499L8.99545 24.2188C8.62988 24.3279 8.27969 24.0085 8.35481 23.6344L11.9174 5.89569Z" fill="#2D3748"/>
</svg>
