<svg width="217" height="35" viewBox="0 0 217 35" fill="none" xmlns="http://www.w3.org/2000/svg">
<g clip-path="url(#clip0_54_342)">
<path d="M15.863 26.0679C15.596 25.8179 15.318 25.5659 15.053 25.2879C14.84 25.4969 14.641 25.6919 14.43 25.8869C11.8 28.2949 9.089 29.2979 7.482 28.3229C5.927 27.3899 5.437 24.6339 6.059 21.1669C6.126 20.7909 6.206 20.4149 6.299 20.0389C6.019 19.9519 5.754 19.8719 5.488 19.7769C2.178 18.5769 0 16.6289 0 14.6789C0 12.7999 2.033 10.9759 5.208 9.80686C5.564 9.68086 5.938 9.55686 6.324 9.44386C6.236 9.08186 6.165 8.73386 6.099 8.39686C5.434 4.87686 5.899 2.06586 7.467 1.11886C9.1 0.115864 11.812 1.18886 14.534 3.70786C14.694 3.86086 14.854 4.02786 15.026 4.19486C15.278 3.94486 15.517 3.69386 15.77 3.47086C18.347 1.11586 20.91 0.129864 22.479 1.07686C24.113 2.05086 24.592 5.05786 23.861 8.77586C23.821 9.01286 23.772 9.23586 23.715 9.47386C24.048 9.57186 24.379 9.68286 24.685 9.79386C27.927 10.9639 30.026 12.7879 30 14.7089C30 16.6719 27.754 18.6069 24.31 19.8039C24.125 19.8599 23.94 19.9299 23.753 19.9849C23.833 20.2639 23.885 20.5419 23.939 20.8199C24.629 24.4269 24.098 27.3779 22.491 28.3529C22.068 28.6029 21.583 28.7289 21.091 28.7189C19.618 28.7169 17.747 27.7639 15.863 26.0679ZM18.467 20.9579C17.7033 22.1248 16.8649 23.2412 15.957 24.2999C16.209 24.5619 16.461 24.8019 16.714 25.0239C18.906 27.0009 20.925 27.7389 21.869 27.1689C22.1566 26.9261 22.3923 26.6278 22.562 26.2919C22.731 25.9569 22.829 25.5919 22.852 25.2199C23.0439 23.8379 22.9897 22.4329 22.692 21.0699C22.6521 20.8126 22.5991 20.5576 22.533 20.3059C21.1937 20.6133 19.8353 20.8311 18.467 20.9579ZM7.333 21.4039C6.789 24.3719 7.187 26.5829 8.133 27.1539C8.46863 27.2916 8.83005 27.3551 9.19252 27.3401C9.55498 27.325 9.90991 27.2318 10.233 27.0669C11.4824 26.5522 12.6232 25.8057 13.595 24.8669C13.794 24.6999 13.979 24.5049 14.179 24.3099C13.2511 23.2511 12.3904 22.1352 11.602 20.9689C10.2387 20.857 8.88464 20.6529 7.549 20.3579C7.467 20.7219 7.399 21.0689 7.333 21.4039ZM15.066 23.3529C15.6873 22.6256 16.2727 21.8684 16.82 21.0839C15.634 21.1392 14.446 21.1392 13.26 21.0839C13.857 21.9039 14.455 22.6709 15.066 23.3529ZM12.276 9.76486C11.7551 10.5515 11.2673 11.3595 10.814 12.1869C10.3557 13.0133 9.93036 13.8577 9.539 14.7179C9.938 15.5529 10.363 16.4029 10.828 17.2669C11.292 18.1019 11.784 18.9249 12.288 19.7019C13.165 19.7579 14.082 19.7899 15.012 19.7899C15.942 19.7899 16.872 19.7619 17.762 19.6929C18.241 18.9279 18.732 18.1049 19.198 17.2559C19.664 16.4069 20.101 15.5439 20.487 14.7089C20.0829 13.856 19.6531 13.0156 19.198 12.1889C18.7441 11.3643 18.2612 10.5562 17.75 9.76586C16.8395 9.69285 15.9264 9.65549 15.013 9.65386C14.083 9.65386 13.166 9.69386 12.275 9.76386L12.276 9.76486ZM7.89 19.0779C8.802 19.2829 9.725 19.4359 10.654 19.5379C10.3287 19.006 10.0143 18.4676 9.711 17.9229C9.418 17.3799 9.126 16.8369 8.861 16.2939C8.475 17.2409 8.155 18.1749 7.89 19.0779ZM20.313 17.9089C20.0159 18.4474 19.7102 18.9811 19.396 19.5099C20.3391 19.3942 21.2751 19.2273 22.2 19.0099C21.9111 18.0695 21.574 17.1446 21.19 16.2389C20.91 16.7949 20.618 17.3519 20.313 17.9089ZM5.62 11.0869C2.91 12.0899 1.276 13.5499 1.276 14.6929C1.327 15.0609 1.452 15.4149 1.644 15.7349C1.835 16.0549 2.089 16.3349 2.391 16.5589C3.43195 17.4172 4.62121 18.0777 5.9 18.5079C6.139 18.5949 6.391 18.6609 6.644 18.7449C7.052 17.3749 7.544 16.0319 8.118 14.7209C7.54331 13.4335 7.05523 12.1092 6.657 10.7569C6.30616 10.8488 5.95936 10.9589 5.62 11.0869ZM21.922 14.6929C22.5108 15.9859 23.0152 17.3156 23.432 18.6739C23.606 18.6189 23.779 18.5629 23.938 18.5069C26.9 17.4769 28.738 15.9029 28.748 14.6779C28.748 13.5369 27.047 12.0599 24.27 11.0579C23.99 10.9609 23.686 10.8639 23.381 10.7659C22.978 12.1045 22.4904 13.4161 21.921 14.6929H21.922ZM20.302 11.4909C20.607 12.0479 20.899 12.5909 21.164 13.1339C21.534 12.2469 21.853 11.3409 22.121 10.4189C21.2182 10.2038 20.3045 10.0369 19.384 9.91886C19.703 10.4319 20.008 10.9489 20.3 11.4909H20.302ZM7.904 10.4079C8.17 11.2989 8.489 12.2039 8.86 13.1359C9.13319 12.588 9.41657 12.0452 9.71 11.5079C10.003 10.9649 10.308 10.4359 10.627 9.91986C9.671 10.0429 8.767 10.2099 7.904 10.4079ZM16.606 4.49086C16.38 4.69886 16.154 4.92186 15.928 5.14486C16.8493 6.19055 17.697 7.29888 18.465 8.46186C19.8167 8.58972 21.1577 8.81295 22.478 9.12986C22.531 8.92186 22.567 8.71186 22.611 8.50386C23.234 5.30186 22.851 2.85086 21.841 2.23886C21.6186 2.11674 21.3675 2.05665 21.114 2.06486C20.028 2.05886 18.362 2.88886 16.606 4.48786V4.49086ZM8.104 2.27386C7.161 2.84386 6.788 5.12786 7.347 8.13486C7.413 8.45486 7.48 8.77486 7.559 9.10886C8.88098 8.80363 10.2215 8.58516 11.572 8.45486C12.3426 7.29039 13.1948 6.18195 14.122 5.13786C13.977 4.98486 13.817 4.84586 13.671 4.70586C11.822 2.98986 10.044 2.08386 8.883 2.08386C8.61049 2.07444 8.34064 2.14017 8.103 2.27386H8.104ZM16.793 8.34386C16.2447 7.56484 15.6538 6.8167 15.023 6.10286C14.3951 6.82116 13.8015 7.56866 13.244 8.34286C14.4266 8.28589 15.6114 8.28589 16.794 8.34286L16.793 8.34386ZM12.355 14.7489C12.3427 14.3906 12.4026 14.0335 12.531 13.6989C12.659 13.3639 12.853 13.0569 13.103 12.7959C13.352 12.5339 13.651 12.3239 13.983 12.1759C14.316 12.0289 14.674 11.9469 15.039 11.9359C15.774 11.9609 16.469 12.2709 16.973 12.7979C17.2213 13.0568 17.4155 13.3626 17.5443 13.6974C17.673 14.0322 17.7338 14.3893 17.723 14.7479C17.7343 15.1071 17.6738 15.465 17.545 15.8005C17.4163 16.136 17.2218 16.4425 16.973 16.7019C16.47 17.2299 15.774 17.5399 15.038 17.5639C14.6738 17.553 14.3151 17.4715 13.982 17.3239C13.6509 17.1767 13.352 16.9661 13.102 16.7039C12.8531 16.4432 12.6586 16.1356 12.53 15.7989C12.4019 15.4641 12.3424 15.1071 12.355 14.7489ZM57.82 0.894864C58.1788 0.697022 58.5818 0.593262 58.9915 0.593262C59.4012 0.593262 59.8042 0.697022 60.163 0.894864L70.868 6.86386C71.204 7.05186 71.483 7.32386 71.678 7.65386C71.874 7.98186 71.978 8.35586 71.981 8.73686V20.7109C71.9738 21.1064 71.8591 21.4926 71.649 21.8279C71.439 22.1639 71.139 22.4379 70.785 22.6209C67.229 24.5999 63.673 26.5789 60.118 28.5599C59.7526 28.7593 59.3409 28.8583 58.9247 28.8469C58.5086 28.8355 58.1029 28.714 57.749 28.4949C56.683 27.8849 55.616 27.2759 54.549 26.6689C54.3149 26.5645 54.1046 26.4134 53.931 26.2249C54.067 26.0469 54.311 26.0209 54.508 25.9419C54.9457 25.7872 55.3682 25.5924 55.77 25.3599C55.8207 25.3303 55.879 25.3165 55.9375 25.32C55.9961 25.3236 56.0523 25.3444 56.099 25.3799C57.011 25.8959 57.914 26.4269 58.829 26.9379C59.024 27.0479 59.222 26.9009 59.389 26.8089C62.879 24.8629 66.369 22.9189 69.861 20.9759C69.9226 20.9452 69.9735 20.8968 70.0074 20.8369C70.0412 20.7771 70.0564 20.7084 70.051 20.6399V8.79186C70.0579 8.71451 70.04 8.63697 69.9999 8.57045C69.9598 8.50394 69.8996 8.4519 69.828 8.42186C66.283 6.45186 62.74 4.48186 59.198 2.51086C59.1364 2.46934 59.0638 2.44715 58.9895 2.44715C58.9152 2.44715 58.8426 2.46934 58.781 2.51086C55.236 4.48086 51.693 6.45286 48.152 8.42486C48.0809 8.45514 48.0211 8.5069 47.9809 8.5729C47.9407 8.6389 47.9222 8.71582 47.928 8.79286V20.6399C47.9216 20.7085 47.9367 20.7775 47.9713 20.8372C48.0059 20.8969 48.0582 20.9443 48.121 20.9729C49.066 21.5019 50.013 22.0289 50.959 22.5549C51.222 22.7154 51.5157 22.8192 51.8212 22.8597C52.1267 22.9001 52.4372 22.8764 52.733 22.7899C52.99 22.6939 53.211 22.5239 53.366 22.3019C53.522 22.0789 53.606 21.8149 53.605 21.5449C53.609 17.6189 53.605 13.6929 53.605 9.76786C53.6032 9.70463 53.6219 9.64251 53.6583 9.59077C53.6947 9.53904 53.7469 9.50049 53.807 9.48086C53.8468 9.46731 53.8891 9.4622 53.931 9.46586C54.381 9.46586 54.841 9.45986 55.295 9.46586C55.3387 9.46799 55.3816 9.47912 55.4208 9.49856C55.46 9.51801 55.4948 9.54535 55.523 9.57886C55.5508 9.6123 55.5712 9.65123 55.5829 9.69311C55.5947 9.73498 55.5974 9.77886 55.591 9.82186C55.591 13.7719 55.596 17.7239 55.591 21.6739C55.6212 22.2108 55.505 22.7458 55.255 23.2219C55.0032 23.7006 54.6275 24.103 54.167 24.3869C53.5493 24.671 52.8745 24.8094 52.1948 24.7912C51.5151 24.7729 50.8486 24.5987 50.247 24.2819C49.207 23.7689 48.215 23.1649 47.194 22.6159C46.8408 22.4344 46.5431 22.1612 46.332 21.8249C46.1218 21.49 46.007 21.1041 46 20.7089V8.73686C46.003 8.34686 46.112 7.96686 46.315 7.63286C46.517 7.29886 46.807 7.02486 47.154 6.83986C50.71 4.85886 54.266 2.87886 57.82 0.894864Z" fill="#E1E1E6"/>
<path d="M60.922 9.18773C62.492 8.98773 64.09 9.22773 65.528 9.88373C66.049 10.1907 66.48 10.6267 66.778 11.1477C67.076 11.6697 67.231 12.2597 67.227 12.8587C67.2055 12.9337 67.1582 12.9986 67.0934 13.042C67.0286 13.0854 66.9505 13.1044 66.873 13.0957C66.422 13.0957 65.971 13.1017 65.521 13.0957C65.4346 13.0901 65.3534 13.0527 65.293 12.9907C65.2329 12.9297 65.1979 12.8483 65.195 12.7627C65.1439 12.4721 65.0295 12.1963 64.86 11.9547C64.6896 11.7121 64.4685 11.5094 64.212 11.3607C63.355 11.0254 62.4313 10.8952 61.515 10.9807C60.8406 10.9594 60.1732 11.123 59.585 11.4537C59.3828 11.6061 59.2344 11.8188 59.1612 12.0612C59.088 12.3036 59.0939 12.5629 59.178 12.8017C59.323 13.1417 59.719 13.2477 60.044 13.3517C61.913 13.8337 63.894 13.7857 65.726 14.4187C66.12 14.5267 66.483 14.7217 66.789 14.9897C67.094 15.2577 67.333 15.5917 67.487 15.9647C67.6714 16.4944 67.7161 17.0626 67.6168 17.6146C67.5175 18.1666 67.2775 18.6836 66.92 19.1157C66.2712 19.7794 65.4328 20.2259 64.52 20.3937C63.327 20.6327 62.103 20.6837 60.894 20.5457C59.7357 20.4813 58.6238 20.0686 57.704 19.3617C57.3412 19.0341 57.0557 18.6301 56.868 18.1787C56.6813 17.7289 56.5976 17.2431 56.623 16.7567C56.6272 16.7176 56.639 16.6797 56.6579 16.6452C56.6768 16.6107 56.7023 16.5803 56.733 16.5557C56.795 16.506 56.8739 16.4823 56.953 16.4897C57.404 16.4897 57.859 16.4847 58.313 16.4897C58.3973 16.4883 58.4787 16.5199 58.54 16.5777C58.57 16.6063 58.5941 16.6405 58.6107 16.6785C58.6274 16.7164 58.6363 16.7573 58.637 16.7987C58.6593 17.0761 58.7389 17.3459 58.8707 17.591C59.0026 17.8361 59.1838 18.0512 59.403 18.2227C60.3752 18.6942 61.4585 18.8886 62.534 18.7847C63.434 18.8517 64.334 18.6327 65.101 18.1617C65.2762 17.9924 65.4041 17.7802 65.4718 17.5462C65.5395 17.3121 65.5448 17.0644 65.487 16.8277C65.377 16.4327 64.957 16.2477 64.598 16.1277C62.753 15.5517 60.75 15.7607 58.92 15.1097C58.5375 14.9998 58.1831 14.8088 57.881 14.5497C57.5805 14.2913 57.3399 13.9705 57.176 13.6097C56.9656 13.0731 56.9123 12.4876 57.0225 11.9218C57.1326 11.356 57.4016 10.8332 57.798 10.4147C58.6655 9.66044 59.7643 9.22446 60.913 9.17873L60.923 9.18873L60.922 9.18773ZM113.135 4.28973C112.678 4.24362 112.219 4.22026 111.759 4.21973C111.483 4.21973 111.23 4.22673 111.04 4.24473C109.56 4.37673 108.177 5.03973 107.23 6.07073C106.732 6.62846 106.353 7.2822 106.117 7.99173C106.023 8.28773 105.967 8.46173 105.935 8.64073C105.887 8.90173 105.888 9.17273 105.888 9.85373C105.89 11.3167 105.962 11.6797 106.448 12.6527C106.936 13.6307 107.679 14.4297 108.753 15.1297C109.223 15.4357 110.427 16.0517 111.411 16.4877C113.552 17.4387 114.229 17.8777 114.543 18.5177L114.673 18.7807V19.3347C114.673 19.8677 114.671 19.8947 114.565 20.1147C114.324 20.6247 113.754 21.0417 113.024 21.2427C112.748 21.3187 112.621 21.3297 112.004 21.3297C111.401 21.3297 111.254 21.3167 110.977 21.2457C110.494 21.1207 110.087 20.9477 109.769 20.7317C109.379 20.4667 108.613 19.6737 108.301 19.2117C108.164 19.0087 108.026 18.8417 107.995 18.8417C107.943 18.8417 105.301 20.3907 104.84 20.6907C104.685 20.7917 104.646 20.8377 104.646 20.9197C104.646 21.0877 105.263 22.0437 105.746 22.6247C106.731 23.8087 108.707 24.8527 110.457 25.1137C111.148 25.2167 112.297 25.2497 113.1 25.1897C113.653 25.145 114.199 25.0397 114.729 24.8757C116.796 24.2547 118.206 22.9337 118.729 21.1307C118.942 20.3957 119.028 19.4907 118.957 18.7277C118.813 17.1607 118.343 16.0537 117.417 15.0947C116.556 14.2047 115.374 13.4867 113.042 12.4387C111.02 11.5297 110.492 11.1767 110.201 10.5387C109.949 9.98673 109.997 9.22873 110.314 8.75673C110.684 8.20573 111.44 7.93273 112.283 8.04673C113.067 8.15373 113.574 8.47173 114.071 9.16973C114.329 9.53173 114.508 9.72073 114.593 9.72073C114.678 9.72073 115.043 9.49073 116.175 8.71973C117.327 7.93573 117.69 7.66973 117.714 7.58973C117.753 7.46473 117.572 7.17373 117.044 6.50973C115.983 5.17573 114.736 4.46773 113.135 4.28973ZM103.532 4.47373C103.506 4.45773 101.871 4.44773 99.02 4.44573L95.777 4.44673C89.521 4.45373 88.069 4.46373 88.029 4.50573C87.991 4.54473 87.981 4.93773 87.981 6.40573V8.25573L93.671 8.27773L93.673 16.5337C93.673 21.0747 93.683 24.8287 93.697 24.8757L93.718 24.9617H95.786C97.637 24.9617 97.856 24.9567 97.876 24.9017C97.888 24.8687 97.897 21.1147 97.897 16.5597V8.27773L103.588 8.25773V6.38373C103.588 4.75973 103.582 4.50573 103.532 4.47373ZM146.852 11.6167C147.057 11.3017 147.282 11.2617 147.464 11.2617C147.646 11.2617 147.948 11.3017 148.154 11.6167C149.768 13.9237 152.433 18.5197 154.399 21.9117C155.682 24.1217 156.667 25.8217 156.869 26.0367C157.627 26.8487 158.667 26.3427 159.272 25.4217C159.867 24.5167 160.031 23.8797 160.031 23.2017C160.031 22.7387 151.41 6.05773 150.542 4.66873C149.708 3.33373 149.435 2.99573 148.007 2.99573H146.937C145.513 2.99573 145.307 3.33373 144.471 4.66873C143.604 6.05773 134.981 22.7387 134.981 23.2007C134.981 23.8807 135.147 24.5167 135.743 25.4217C136.348 26.3417 137.388 26.8487 138.146 26.0357C138.347 25.8197 139.332 24.1227 140.615 21.9107C142.581 18.5207 145.237 13.9237 146.853 11.6157L146.852 11.6167ZM196.031 2.71973C190.698 2.71973 187.365 5.38673 186.031 10.7197C188.031 8.05273 190.365 7.05273 193.031 7.71973C194.553 8.09973 195.64 9.20373 196.844 10.4257C198.805 12.4157 201.074 14.7197 206.031 14.7197C211.365 14.7197 214.698 12.0527 216.031 6.71973C214.031 9.38673 211.698 10.3867 209.031 9.71973C207.51 9.33973 206.422 8.23573 205.219 7.01373C203.258 5.02373 200.988 2.71973 196.031 2.71973ZM186.031 14.7197C180.698 14.7197 177.365 17.3867 176.031 22.7197C178.031 20.0527 180.365 19.0527 183.031 19.7197C184.553 20.0997 185.64 21.2037 186.844 22.4257C188.805 24.4157 191.074 26.7197 196.031 26.7197C201.365 26.7197 204.698 24.0527 206.031 18.7197C204.031 21.3867 201.698 22.3867 199.031 21.7197C197.51 21.3397 196.422 20.2357 195.219 19.0137C193.258 17.0237 190.988 14.7197 186.031 14.7197Z" fill="#E1E1E6"/>
</g>
<defs>
<clipPath id="clip0_54_342">
<rect width="217" height="29" fill="white" transform="translate(0 0.59375)"/>
</clipPath>
</defs>
</svg>
